<svg width="76" height="76" viewBox="0 0 76 76" fill="none" xmlns="http://www.w3.org/2000/svg">
<g clip-path="url(#clip0_1225_916)">
<path d="M11.025 56C11.087 55.6965 11.2594 55.4268 11.5089 55.2432C11.7584 55.0596 12.0672 54.9752 12.3754 55.0063C12.6836 55.0375 12.9692 55.1819 13.177 55.4117C13.3847 55.6415 13.4997 55.9402 13.4997 56.25C13.4997 56.5598 13.3847 56.8585 13.177 57.0883C12.9692 57.3181 12.6836 57.4625 12.3754 57.4937C12.0672 57.5248 11.7584 57.4404 11.5089 57.2568C11.2594 57.0732 11.087 56.8035 11.025 56.5H0V56H11.025ZM51.025 68C51.087 67.6965 51.2594 67.4268 51.5089 67.2432C51.7584 67.0596 52.0672 66.9752 52.3754 67.0063C52.6836 67.0375 52.9692 67.1819 53.177 67.4117C53.3847 67.6415 53.4997 67.9402 53.4997 68.25C53.4997 68.5598 53.3847 68.8585 53.177 69.0883C52.9692 69.3181 52.6836 69.4625 52.3754 69.4937C52.0672 69.5248 51.7584 69.4404 51.5089 69.2568C51.2594 69.0732 51.087 68.8035 51.025 68.5H20.5V68H51.025ZM65.475 56.5C65.413 56.8035 65.2406 57.0732 64.9911 57.2568C64.7416 57.4404 64.4328 57.5248 64.1246 57.4937C63.8164 57.4625 63.5308 57.3181 63.323 57.0883C63.1153 56.8585 63.0003 56.5598 63.0003 56.25C63.0003 55.9402 63.1153 55.6415 63.323 55.4117C63.5308 55.1819 63.8164 55.0375 64.1246 55.0063C64.4328 54.9752 64.7416 55.0596 64.9911 55.2432C65.2406 55.4268 65.413 55.6965 65.475 56H76V56.5H65.475ZM65.475 60.5C65.413 60.8035 65.2406 61.0732 64.9911 61.2568C64.7416 61.4404 64.4328 61.5248 64.1246 61.4937C63.8164 61.4625 63.5308 61.3181 63.323 61.0883C63.1153 60.8585 63.0003 60.5598 63.0003 60.25C63.0003 59.9402 63.1153 59.6415 63.323 59.4117C63.5308 59.1819 63.8164 59.0375 64.1246 59.0063C64.4328 58.9752 64.7416 59.0596 64.9911 59.2432C65.2406 59.4268 65.413 59.6965 65.475 60H76V60.5H65.475ZM67.025 32C67.087 31.6965 67.2594 31.4268 67.5089 31.2432C67.7584 31.0596 68.0672 30.9752 68.3754 31.0063C68.6836 31.0375 68.9692 31.1819 69.177 31.4117C69.3847 31.6415 69.4997 31.9402 69.4997 32.25C69.4997 32.5598 69.3847 32.8585 69.177 33.0883C68.9692 33.3181 68.6836 33.4625 68.3754 33.4937C68.0672 33.5248 67.7584 33.4404 67.5089 33.2568C67.2594 33.0732 67.087 32.8035 67.025 32.5H45.475C45.413 32.8035 45.2406 33.0732 44.9911 33.2568C44.7416 33.4404 44.4328 33.5248 44.1246 33.4937C43.8164 33.4625 43.5308 33.3181 43.323 33.0883C43.1153 32.8585 43.0003 32.5598 43.0003 32.25C43.0003 31.9402 43.1153 31.6415 43.323 31.4117C43.5308 31.1819 43.8164 31.0375 44.1246 31.0063C44.4328 30.9752 44.7416 31.0596 44.9911 31.2432C45.2406 31.4268 45.413 31.6965 45.475 32H67.025ZM3.025 20C3.08695 19.6965 3.2594 19.4268 3.5089 19.2432C3.7584 19.0596 4.06718 18.9752 4.37538 19.0063C4.68358 19.0375 4.96924 19.1819 5.17698 19.4117C5.38473 19.6415 5.49974 19.9402 5.49974 20.25C5.49974 20.5598 5.38473 20.8585 5.17698 21.0883C4.96924 21.3181 4.68358 21.4625 4.37538 21.4937C4.06718 21.5248 3.7584 21.4404 3.5089 21.2568C3.2594 21.0732 3.08695 20.8035 3.025 20.5H0V20H3.025ZM49.475 28.5C49.413 28.8035 49.2406 29.0732 48.9911 29.2568C48.7416 29.4404 48.4328 29.5248 48.1246 29.4937C47.8164 29.4625 47.5308 29.3181 47.323 29.0883C47.1153 28.8585 47.0003 28.5598 47.0003 28.25C47.0003 27.9402 47.1153 27.6415 47.323 27.4117C47.5308 27.1819 47.8164 27.0375 48.1246 27.0063C48.4328 26.9752 48.7416 27.0596 48.9911 27.2432C49.2406 27.4268 49.413 27.6965 49.475 28H71.025C71.087 27.6965 71.2594 27.4268 71.5089 27.2432C71.7584 27.0596 72.0672 26.9752 72.3754 27.0063C72.6836 27.0375 72.9692 27.1819 73.177 27.4117C73.3847 27.6415 73.4997 27.9402 73.4997 28.25C73.4997 28.5598 73.3847 28.8585 73.177 29.0883C72.9692 29.3181 72.6836 29.4625 72.3754 29.4937C72.0672 29.5248 71.7584 29.4404 71.5089 29.2568C71.2594 29.0732 71.087 28.8035 71.025 28.5H49.475ZM64.5 3.025C64.8035 3.08695 65.0732 3.2594 65.2568 3.5089C65.4404 3.7584 65.5248 4.06718 65.4937 4.37538C65.4625 4.68358 65.3181 4.96924 65.0883 5.17698C64.8585 5.38473 64.5598 5.49974 64.25 5.49974C63.9402 5.49974 63.6415 5.38473 63.4117 5.17698C63.1819 4.96924 63.0375 4.68358 63.0063 4.37538C62.9752 4.06718 63.0596 3.7584 63.2432 3.5089C63.4268 3.2594 63.6965 3.08695 64 3.025V0H64.5V3.025ZM48.5 55.025C48.8035 55.087 49.0732 55.2594 49.2568 55.5089C49.4404 55.7584 49.5248 56.0672 49.4937 56.3754C49.4625 56.6836 49.3181 56.9692 49.0883 57.177C48.8585 57.3847 48.5598 57.4997 48.25 57.4997C47.9402 57.4997 47.6415 57.3847 47.4117 57.177C47.1819 56.9692 47.0375 56.6836 47.0063 56.3754C46.9752 56.0672 47.0596 55.7584 47.2432 55.5089C47.4268 55.2594 47.6965 55.087 48 55.025V41.475C47.6965 41.413 47.4268 41.2406 47.2432 40.9911C47.0596 40.7416 46.9752 40.4328 47.0063 40.1246C47.0375 39.8164 47.1819 39.5308 47.4117 39.323C47.6415 39.1153 47.9402 39.0003 48.25 39.0003C48.5598 39.0003 48.8585 39.1153 49.0883 39.323C49.3181 39.5308 49.4625 39.8164 49.4937 40.1246C49.5248 40.4328 49.4404 40.7416 49.2568 40.9911C49.0732 41.2406 48.8035 41.413 48.5 41.475V55.025ZM60.5 5.475V20H76V20.5H60V5.475C59.6965 5.41305 59.4268 5.2406 59.2432 4.9911C59.0596 4.7416 58.9752 4.43282 59.0063 4.12462C59.0375 3.81642 59.1819 3.53076 59.4117 3.32302C59.6415 3.11528 59.9402 3.00026 60.25 3.00026C60.5598 3.00026 60.8585 3.11528 61.0883 3.32302C61.3181 3.53076 61.4625 3.81642 61.4937 4.12462C61.5248 4.43282 61.4404 4.7416 61.2568 4.9911C61.0732 5.2406 60.8035 5.41305 60.5 5.475ZM64.5 9.475V16H76V16.5H64V9.475C63.6965 9.41305 63.4268 9.2406 63.2432 8.9911C63.0596 8.7416 62.9752 8.43282 63.0063 8.12462C63.0375 7.81642 63.1819 7.53076 63.4117 7.32302C63.6415 7.11527 63.9402 7.00026 64.25 7.00026C64.5598 7.00026 64.8585 7.11527 65.0883 7.32302C65.3181 7.53076 65.4625 7.81642 65.4937 8.12462C65.5248 8.43282 65.4404 8.7416 65.2568 8.9911C65.0732 9.2406 64.8035 9.41305 64.5 9.475ZM32.5 33.475V52H36.5V55.025C36.8035 55.087 37.0732 55.2594 37.2568 55.5089C37.4404 55.7584 37.5248 56.0672 37.4937 56.3754C37.4625 56.6836 37.3181 56.9692 37.0883 57.177C36.8585 57.3847 36.5598 57.4997 36.25 57.4997C35.9402 57.4997 35.6415 57.3847 35.4117 57.177C35.1819 56.9692 35.0375 56.6836 35.0063 56.3754C34.9752 56.0672 35.0596 55.7584 35.2432 55.5089C35.4268 55.2594 35.6965 55.087 36 55.025V52.5H32V33.475C31.6965 33.413 31.4268 33.2406 31.2432 32.9911C31.0596 32.7416 30.9752 32.4328 31.0063 32.1246C31.0375 31.8164 31.1819 31.5308 31.4117 31.323C31.6415 31.1153 31.9402 31.0003 32.25 31.0003C32.5598 31.0003 32.8585 31.1153 33.0883 31.323C33.3181 31.5308 33.4625 31.8164 33.4937 32.1246C33.5248 32.4328 33.4404 32.7416 33.2568 32.9911C33.0732 33.2406 32.8035 33.413 32.5 33.475ZM31.025 28C31.087 27.6965 31.2594 27.4268 31.5089 27.2432C31.7584 27.0596 32.0672 26.9752 32.3754 27.0063C32.6836 27.0375 32.9692 27.1819 33.177 27.4117C33.3847 27.6415 33.4997 27.9402 33.4997 28.25C33.4997 28.5598 33.3847 28.8585 33.177 29.0883C32.9692 29.3181 32.6836 29.4625 32.3754 29.4937C32.0672 29.5248 31.7584 29.4404 31.5089 29.2568C31.2594 29.0732 31.087 28.8035 31.025 28.5H28.5V40.5H21.475C21.413 40.8035 21.2406 41.0732 20.9911 41.2568C20.7416 41.4404 20.4328 41.5248 20.1246 41.4937C19.8164 41.4625 19.5308 41.3181 19.323 41.0883C19.1153 40.8585 19.0003 40.5598 19.0003 40.25C19.0003 39.9402 19.1153 39.6415 19.323 39.4117C19.5308 39.1819 19.8164 39.0375 20.1246 39.0063C20.4328 38.9752 20.7416 39.0596 20.9911 39.2432C21.2406 39.4268 21.413 39.6965 21.475 40H28V28H31.025ZM29.475 60.5C29.413 60.8035 29.2406 61.0732 28.9911 61.2568C28.7416 61.4404 28.4328 61.5248 28.1246 61.4937C27.8164 61.4625 27.5308 61.3181 27.323 61.0883C27.1153 60.8585 27.0003 60.5598 27.0003 60.25C27.0003 59.9402 27.1153 59.6415 27.323 59.4117C27.5308 59.1819 27.8164 59.0375 28.1246 59.0063C28.4328 58.9752 28.7416 59.0596 28.9911 59.2432C29.2406 59.4268 29.413 59.6965 29.475 60H44V41.475C43.6965 41.413 43.4268 41.2406 43.2432 40.9911C43.0596 40.7416 42.9752 40.4328 43.0063 40.1246C43.0375 39.8164 43.1819 39.5308 43.4117 39.323C43.6415 39.1153 43.9402 39.0003 44.25 39.0003C44.5598 39.0003 44.8585 39.1153 45.0883 39.323C45.3181 39.5308 45.4625 39.8164 45.4937 40.1246C45.5248 40.4328 45.4404 40.7416 45.2568 40.9911C45.0732 41.2406 44.8035 41.413 44.5 41.475V60.5H29.475ZM25.475 44.5C25.413 44.8035 25.2406 45.0732 24.9911 45.2568C24.7416 45.4404 24.4328 45.5248 24.1246 45.4937C23.8164 45.4625 23.5308 45.3181 23.323 45.0883C23.1153 44.8585 23.0003 44.5598 23.0003 44.25C23.0003 43.9402 23.1153 43.6415 23.323 43.4117C23.5308 43.1819 23.8164 43.0375 24.1246 43.0063C24.4328 42.9752 24.7416 43.0596 24.9911 43.2432C25.2406 43.4268 25.413 43.6965 25.475 44H28.5V56H31.025C31.087 55.6965 31.2594 55.4268 31.5089 55.2432C31.7584 55.0596 32.0672 54.9752 32.3754 55.0063C32.6836 55.0375 32.9692 55.1819 33.177 55.4117C33.3847 55.6415 33.4997 55.9402 33.4997 56.25C33.4997 56.5598 33.3847 56.8585 33.177 57.0883C32.9692 57.3181 32.6836 57.4625 32.3754 57.4937C32.0672 57.5248 31.7584 57.4404 31.5089 57.2568C31.2594 57.0732 31.087 56.8035 31.025 56.5H28V44.5H25.475ZM16.5 71.025C16.8035 71.087 17.0732 71.2594 17.2568 71.5089C17.4404 71.7584 17.5248 72.0672 17.4937 72.3754C17.4625 72.6836 17.3181 72.9692 17.0883 73.177C16.8585 73.3847 16.5598 73.4997 16.25 73.4997C15.9402 73.4997 15.6415 73.3847 15.4117 73.177C15.1819 72.9692 15.0375 72.6836 15.0063 72.3754C14.9752 72.0672 15.0596 71.7584 15.2432 71.5089C15.4268 71.2594 15.6965 71.087 16 71.025V68.5H12.5V76H12V68H16.5V71.025ZM59.025 44C59.087 43.6965 59.2594 43.4268 59.5089 43.2432C59.7584 43.0596 60.0672 42.9752 60.3754 43.0063C60.6836 43.0375 60.9692 43.1819 61.177 43.4117C61.3847 43.6415 61.4997 43.9402 61.4997 44.25C61.4997 44.5598 61.3847 44.8585 61.177 45.0883C60.9692 45.3181 60.6836 45.4625 60.3754 45.4937C60.0672 45.5248 59.7584 45.4404 59.5089 45.2568C59.2594 45.0732 59.087 44.8035 59.025 44.5H56.5V68H68.5V76H68V68.5H56V44H59.025ZM65.475 36.5C65.413 36.8035 65.2406 37.0732 64.9911 37.2568C64.7416 37.4404 64.4328 37.5248 64.1246 37.4937C63.8164 37.4625 63.5308 37.3181 63.323 37.0883C63.1153 36.8585 63.0003 36.5598 63.0003 36.25C63.0003 35.9402 63.1153 35.6415 63.323 35.4117C63.5308 35.1819 63.8164 35.0375 64.1246 35.0063C64.4328 34.9752 64.7416 35.0596 64.9911 35.2432C65.2406 35.4268 65.413 35.6965 65.475 36H68.5V47.025C68.8035 47.087 69.0732 47.2594 69.2568 47.5089C69.4404 47.7584 69.5248 48.0672 69.4937 48.3754C69.4625 48.6836 69.3181 48.9692 69.0883 49.177C68.8585 49.3847 68.5598 49.4997 68.25 49.4997C67.9402 49.4997 67.6415 49.3847 67.4117 49.177C67.1819 48.9692 67.0375 48.6836 67.0063 48.3754C66.9752 48.0672 67.0596 47.7584 67.2432 47.5089C67.4268 47.2594 67.6965 47.087 68 47.025V36.5H65.475ZM49.475 60.5C49.413 60.8035 49.2406 61.0732 48.9911 61.2568C48.7416 61.4404 48.4328 61.5248 48.1246 61.4937C47.8164 61.4625 47.5308 61.3181 47.323 61.0883C47.1153 60.8585 47.0003 60.5598 47.0003 60.25C47.0003 59.9402 47.1153 59.6415 47.323 59.4117C47.5308 59.1819 47.8164 59.0375 48.1246 59.0063C48.4328 58.9752 48.7416 59.0596 48.9911 59.2432C49.2406 59.4268 49.413 59.6965 49.475 60H52V40H56V36.5H45.475C45.413 36.8035 45.2406 37.0732 44.9911 37.2568C44.7416 37.4404 44.4328 37.5248 44.1246 37.4937C43.8164 37.4625 43.5308 37.3181 43.323 37.0883C43.1153 36.8585 43.0003 36.5598 43.0003 36.25C43.0003 35.9402 43.1153 35.6415 43.323 35.4117C43.5308 35.1819 43.8164 35.0375 44.1246 35.0063C44.4328 34.9752 44.7416 35.0596 44.9911 35.2432C45.2406 35.4268 45.413 35.6965 45.475 36H56.5V40.5H52.5V60.5H49.475ZM71.025 8C71.087 7.69649 71.2594 7.42679 71.5089 7.2432C71.7584 7.05961 72.0672 6.9752 72.3754 7.00633C72.6836 7.03746 72.9692 7.18193 73.177 7.41171C73.3847 7.6415 73.4997 7.94023 73.4997 8.25C73.4997 8.55977 73.3847 8.8585 73.177 9.08829C72.9692 9.31807 72.6836 9.46254 72.3754 9.49367C72.0672 9.52481 71.7584 9.44039 71.5089 9.2568C71.2594 9.07321 71.087 8.80351 71.025 8.5H68V0H68.5V8H71.025ZM24.5 25.475V36.5H13.475C13.413 36.8035 13.2406 37.0732 12.9911 37.2568C12.7416 37.4404 12.4328 37.5248 12.1246 37.4937C11.8164 37.4625 11.5308 37.3181 11.323 37.0883C11.1153 36.8585 11.0003 36.5598 11.0003 36.25C11.0003 35.9402 11.1153 35.6415 11.323 35.4117C11.5308 35.1819 11.8164 35.0375 12.1246 35.0063C12.4328 34.9752 12.7416 35.0596 12.9911 35.2432C13.2406 35.4268 13.413 35.6965 13.475 36H24V25.475C23.6965 25.413 23.4268 25.2406 23.2432 24.9911C23.0596 24.7416 22.9752 24.4328 23.0063 24.1246C23.0375 23.8164 23.1819 23.5308 23.4117 23.323C23.6415 23.1153 23.9402 23.0003 24.25 23.0003C24.5598 23.0003 24.8585 23.1153 25.0883 23.323C25.3181 23.5308 25.4625 23.8164 25.4937 24.1246C25.5248 24.4328 25.4404 24.7416 25.2568 24.9911C25.0732 25.2406 24.8035 25.413 24.5 25.475ZM13.475 8.5C13.413 8.80351 13.2406 9.07321 12.9911 9.2568C12.7416 9.44039 12.4328 9.52481 12.1246 9.49367C11.8164 9.46254 11.5308 9.31807 11.323 9.08829C11.1153 8.8585 11.0003 8.55977 11.0003 8.25C11.0003 7.94023 11.1153 7.6415 11.323 7.41171C11.5308 7.18193 11.8164 7.03746 12.1246 7.00633C12.4328 6.9752 12.7416 7.05961 12.9911 7.2432C13.2406 7.42679 13.413 7.69649 13.475 8H20V0H20.5V8.5H13.475ZM28.5 9.475V16.5H20.5V32.5H17.475C17.413 32.8035 17.2406 33.0732 16.9911 33.2568C16.7416 33.4404 16.4328 33.5248 16.1246 33.4937C15.8164 33.4625 15.5308 33.3181 15.323 33.0883C15.1153 32.8585 15.0003 32.5598 15.0003 32.25C15.0003 31.9402 15.1153 31.6415 15.323 31.4117C15.5308 31.1819 15.8164 31.0375 16.1246 31.0063C16.4328 30.9752 16.7416 31.0596 16.9911 31.2432C17.2406 31.4268 17.413 31.6965 17.475 32H20V16H28V9.475C27.6965 9.41305 27.4268 9.2406 27.2432 8.9911C27.0596 8.7416 26.9752 8.43282 27.0063 8.12462C27.0375 7.81642 27.1819 7.53076 27.4117 7.32302C27.6415 7.11527 27.9402 7.00026 28.25 7.00026C28.5598 7.00026 28.8585 7.11527 29.0883 7.32302C29.3181 7.53076 29.4625 7.81642 29.4937 8.12462C29.5248 8.43282 29.4404 8.7416 29.2568 8.9911C29.0732 9.2406 28.8035 9.41305 28.5 9.475ZM25.475 20.5C25.413 20.8035 25.2406 21.0732 24.9911 21.2568C24.7416 21.4404 24.4328 21.5248 24.1246 21.4937C23.8164 21.4625 23.5308 21.3181 23.323 21.0883C23.1153 20.8585 23.0003 20.5598 23.0003 20.25C23.0003 19.9402 23.1153 19.6415 23.323 19.4117C23.5308 19.1819 23.8164 19.0375 24.1246 19.0063C24.4328 18.9752 24.7416 19.0596 24.9911 19.2432C25.2406 19.4268 25.413 19.6965 25.475 20H32V9.475C31.6965 9.41305 31.4268 9.2406 31.2432 8.9911C31.0596 8.7416 30.9752 8.43282 31.0063 8.12462C31.0375 7.81642 31.1819 7.53076 31.4117 7.32302C31.6415 7.11527 31.9402 7.00026 32.25 7.00026C32.5598 7.00026 32.8585 7.11527 33.0883 7.32302C33.3181 7.53076 33.4625 7.81642 33.4937 8.12462C33.5248 8.43282 33.4404 8.7416 33.2568 8.9911C33.0732 9.2406 32.8035 9.41305 32.5 9.475V20.5H25.475ZM29.475 4.5C29.413 4.80351 29.2406 5.07321 28.9911 5.2568C28.7416 5.44039 28.4328 5.5248 28.1246 5.49367C27.8164 5.46254 27.5308 5.31807 27.323 5.08829C27.1153 4.8585 27.0003 4.55977 27.0003 4.25C27.0003 3.94023 27.1153 3.6415 27.323 3.41171C27.5308 3.18193 27.8164 3.03746 28.1246 3.00633C28.4328 2.9752 28.7416 3.05961 28.9911 3.2432C29.2406 3.42679 29.413 3.69649 29.475 4H36.5V15.025C36.8035 15.087 37.0732 15.2594 37.2568 15.5089C37.4404 15.7584 37.5248 16.0672 37.4937 16.3754C37.4625 16.6836 37.3181 16.9692 37.0883 17.177C36.8585 17.3847 36.5598 17.4997 36.25 17.4997C35.9402 17.4997 35.6415 17.3847 35.4117 17.177C35.1819 16.9692 35.0375 16.6836 35.0063 16.3754C34.9752 16.0672 35.0596 15.7584 35.2432 15.5089C35.4268 15.2594 35.6965 15.087 36 15.025V4.5H29.475ZM55.025 72C55.087 71.6965 55.2594 71.4268 55.5089 71.2432C55.7584 71.0596 56.0672 70.9752 56.3754 71.0063C56.6836 71.0375 56.9692 71.1819 57.177 71.4117C57.3847 71.6415 57.4997 71.9402 57.4997 72.25C57.4997 72.5598 57.3847 72.8585 57.177 73.0883C56.9692 73.3181 56.6836 73.4625 56.3754 73.4937C56.0672 73.5248 55.7584 73.4404 55.5089 73.2568C55.2594 73.0732 55.087 72.8035 55.025 72.5H24.5V76H24V72H55.025ZM60.5 37.475V40H64.5V48.5H60.5V64H72.5V76H72V64.5H60V48H64V40.5H60V37.475C59.6965 37.413 59.4268 37.2406 59.2432 36.9911C59.0596 36.7416 58.9752 36.4328 59.0063 36.1246C59.0375 35.8164 59.1819 35.5308 59.4117 35.323C59.6415 35.1153 59.9402 35.0003 60.25 35.0003C60.5598 35.0003 60.8585 35.1153 61.0883 35.323C61.3181 35.5308 61.4625 35.8164 61.4937 36.1246C61.5248 36.4328 61.4404 36.7416 61.2568 36.9911C61.0732 37.2406 60.8035 37.413 60.5 37.475ZM13.475 4.5C13.413 4.80351 13.2406 5.07321 12.9911 5.2568C12.7416 5.44039 12.4328 5.5248 12.1246 5.49367C11.8164 5.46254 11.5308 5.31807 11.323 5.08829C11.1153 4.8585 11.0003 4.55977 11.0003 4.25C11.0003 3.94023 11.1153 3.6415 11.323 3.41171C11.5308 3.18193 11.8164 3.03746 12.1246 3.00633C12.4328 2.9752 12.7416 3.05961 12.9911 3.2432C13.2406 3.42679 13.413 3.69649 13.475 4H16V0.5H12V0H16.5V4.5H13.475ZM41.475 12.5C41.413 12.8035 41.2406 13.0732 40.9911 13.2568C40.7416 13.4404 40.4328 13.5248 40.1246 13.4937C39.8164 13.4625 39.5308 13.3181 39.323 13.0883C39.1153 12.8585 39.0003 12.5598 39.0003 12.25C39.0003 11.9402 39.1153 11.6415 39.323 11.4117C39.5308 11.1819 39.8164 11.0375 40.1246 11.0063C40.4328 10.9752 40.7416 11.0596 40.9911 11.2432C41.2406 11.4268 41.413 11.6965 41.475 12H48V0H60.5V0.5H48.5V12.5H41.475ZM29.475 0.5C29.4422 0.660869 29.378 0.813697 29.2861 0.949757C29.1942 1.08582 29.0764 1.20245 28.9394 1.29298C28.8025 1.38352 28.649 1.44619 28.4878 1.47742C28.3266 1.50865 28.1609 1.50783 28 1.475C27.8391 1.44217 27.6863 1.37797 27.5502 1.28608C27.4142 1.19419 27.2976 1.0764 27.207 0.939429C27.0242 0.662813 26.9587 0.32489 27.025 0L27.5425 0C27.5027 0.113092 27.4906 0.234073 27.5072 0.352802C27.5238 0.471532 27.5687 0.584549 27.638 0.68238C27.7073 0.780212 27.799 0.860007 27.9055 0.915076C28.012 0.970146 28.1301 0.998885 28.25 0.998885C28.3699 0.998885 28.488 0.970146 28.5945 0.915076C28.701 0.860007 28.7927 0.780212 28.862 0.68238C28.9313 0.584549 28.9762 0.471532 28.9928 0.352802C29.0094 0.234073 28.9973 0.113092 28.9575 0L44.5 0V8.5H40V5.475C39.6965 5.41305 39.4268 5.2406 39.2432 4.9911C39.0596 4.7416 38.9752 4.43282 39.0063 4.12462C39.0375 3.81642 39.1819 3.53076 39.4117 3.32302C39.6415 3.11528 39.9402 3.00026 40.25 3.00026C40.5598 3.00026 40.8585 3.11528 41.0883 3.32302C41.3181 3.53076 41.4625 3.81642 41.4937 4.12462C41.5248 4.43282 41.4404 4.7416 41.2568 4.9911C41.0732 5.2406 40.8035 5.41305 40.5 5.475V8H44V0.5H29.475ZM29.475 24.5C29.413 24.8035 29.2406 25.0732 28.9911 25.2568C28.7416 25.4404 28.4328 25.5248 28.1246 25.4937C27.8164 25.4625 27.5308 25.3181 27.323 25.0883C27.1153 24.8585 27.0003 24.5598 27.0003 24.25C27.0003 23.9402 27.1153 23.6415 27.323 23.4117C27.5308 23.1819 27.8164 23.0375 28.1246 23.0063C28.4328 22.9752 28.7416 23.0596 28.9911 23.2432C29.2406 23.4268 29.413 23.6965 29.475 24H34.25L42.25 16H52V5.475C51.6965 5.41305 51.4268 5.2406 51.2432 4.9911C51.0596 4.7416 50.9752 4.43282 51.0063 4.12462C51.0375 3.81642 51.1819 3.53076 51.4117 3.32302C51.6415 3.11528 51.9402 3.00026 52.25 3.00026C52.5598 3.00026 52.8585 3.11528 53.0883 3.32302C53.3181 3.53076 53.4625 3.81642 53.4937 4.12462C53.5248 4.43282 53.4404 4.7416 53.2568 4.9911C53.0732 5.2406 52.8035 5.41305 52.5 5.475V16.5H42.4575L34.4575 24.5H29.475ZM36.5 47.025C36.8035 47.087 37.0732 47.2594 37.2568 47.5089C37.4404 47.7584 37.5248 48.0672 37.4937 48.3754C37.4625 48.6836 37.3181 48.9692 37.0883 49.177C36.8585 49.3847 36.5598 49.4997 36.25 49.4997C35.9402 49.4997 35.6415 49.3847 35.4117 49.177C35.1819 48.9692 35.0375 48.6836 35.0063 48.3754C34.9752 48.0672 35.0596 47.7584 35.2432 47.5089C35.4268 47.2594 35.6965 47.087 36 47.025V27.8975L43.8975 20H56V5.475C55.6965 5.41305 55.4268 5.2406 55.2432 4.9911C55.0596 4.7416 54.9752 4.43282 55.0063 4.12462C55.0375 3.81642 55.1819 3.53076 55.4117 3.32302C55.6415 3.11528 55.9402 3.00026 56.25 3.00026C56.5598 3.00026 56.8585 3.11528 57.0883 3.32302C57.3181 3.53076 57.4625 3.81642 57.4937 4.12462C57.5248 4.43282 57.4404 4.7416 57.2568 4.9911C57.0732 5.2406 56.8035 5.41305 56.5 5.475V20.5H44.1025L36.5 28.1025V47.025ZM40.5 55.025C40.8035 55.087 41.0732 55.2594 41.2568 55.5089C41.4404 55.7584 41.5248 56.0672 41.4937 56.3754C41.4625 56.6836 41.3181 56.9692 41.0883 57.177C40.8585 57.3847 40.5598 57.4997 40.25 57.4997C39.9402 57.4997 39.6415 57.3847 39.4117 57.177C39.1819 56.9692 39.0375 56.6836 39.0063 56.3754C38.9752 56.0672 39.0596 55.7584 39.2432 55.5089C39.4268 55.2594 39.6965 55.087 40 55.025V30.1475L46.1475 24H75.025C75.074 23.7598 75.1925 23.5393 75.3659 23.3659C75.5393 23.1925 75.7598 23.074 76 23.025V23.5425C75.8535 23.594 75.7266 23.6898 75.6369 23.8165C75.5471 23.9432 75.4989 24.0947 75.4989 24.25C75.4989 24.4053 75.5471 24.5568 75.6369 24.6835C75.7266 24.8102 75.8535 24.906 76 24.9575V25.475C75.7598 25.426 75.5393 25.3075 75.3659 25.1341C75.1925 24.9607 75.074 24.7402 75.025 24.5H46.3525L40.5 30.3525V55.025ZM4.5 39.025C4.80351 39.087 5.07321 39.2594 5.2568 39.5089C5.44039 39.7584 5.5248 40.0672 5.49367 40.3754C5.46254 40.6836 5.31807 40.9692 5.08829 41.177C4.8585 41.3847 4.55977 41.4997 4.25 41.4997C3.94023 41.4997 3.6415 41.3847 3.41171 41.177C3.18193 40.9692 3.03746 40.6836 3.00633 40.3754C2.9752 40.0672 3.05961 39.7584 3.2432 39.5089C3.42679 39.2594 3.69649 39.087 4 39.025V38.1475L16 26.1475V12H24V0H24.5V12.5H16.5V26.3525L4.5 38.3525V39.025ZM12.5 13.475V24.3525L0.5 36.3525V52H7.025C7.08695 51.6965 7.2594 51.4268 7.5089 51.2432C7.7584 51.0596 8.06718 50.9752 8.37538 51.0063C8.68358 51.0375 8.96924 51.1819 9.17698 51.4117C9.38472 51.6415 9.49974 51.9402 9.49974 52.25C9.49974 52.5598 9.38472 52.8585 9.17698 53.0883C8.96924 53.3181 8.68358 53.4625 8.37538 53.4937C8.06718 53.5248 7.7584 53.4404 7.5089 53.2568C7.2594 53.0732 7.08695 52.8035 7.025 52.5H0V36.1475L12 24.1475V13.475C11.6965 13.413 11.4268 13.2406 11.2432 12.9911C11.0596 12.7416 10.9752 12.4328 11.0063 12.1246C11.0375 11.8164 11.1819 11.5308 11.4117 11.323C11.6415 11.1153 11.9402 11.0003 12.25 11.0003C12.5598 11.0003 12.8585 11.1153 13.0883 11.323C13.3181 11.5308 13.4625 11.8164 13.4937 12.1246C13.5248 12.4328 13.4404 12.7416 13.2568 12.9911C13.0732 13.2406 12.8035 13.413 12.5 13.475ZM8.5 17.475V22.3525L0 30.8525V30.1475L8 22.1475V17.475C7.69649 17.413 7.42679 17.2406 7.2432 16.9911C7.05961 16.7416 6.9752 16.4328 7.00633 16.1246C7.03746 15.8164 7.18193 15.5308 7.41171 15.323C7.6415 15.1153 7.94023 15.0003 8.25 15.0003C8.55977 15.0003 8.8585 15.1153 9.08829 15.323C9.31807 15.5308 9.46254 15.8164 9.49367 16.1246C9.52481 16.4328 9.44039 16.7416 9.2568 16.9911C9.07321 17.2406 8.80351 17.413 8.5 17.475ZM3.025 8C3.08695 7.69649 3.2594 7.42679 3.5089 7.2432C3.7584 7.05961 4.06718 6.9752 4.37538 7.00633C4.68358 7.03746 4.96924 7.18193 5.17698 7.41171C5.38473 7.6415 5.49974 7.94023 5.49974 8.25C5.49974 8.55977 5.38473 8.8585 5.17698 9.08829C4.96924 9.31807 4.68358 9.46254 4.37538 9.49367C4.06718 9.52481 3.7584 9.44039 3.5089 9.2568C3.2594 9.07321 3.08695 8.80351 3.025 8.5H2.3525L0 10.8525V10.15L2.1475 8H3.025ZM69.475 12.5C69.413 12.8035 69.2406 13.0732 68.9911 13.2568C68.7416 13.4404 68.4328 13.5248 68.1246 13.4937C67.8164 13.4625 67.5308 13.3181 67.323 13.0883C67.1153 12.8585 67.0003 12.5598 67.0003 12.25C67.0003 11.9402 67.1153 11.6415 67.323 11.4117C67.5308 11.1819 67.8164 11.0375 68.1246 11.0063C68.4328 10.9752 68.7416 11.0596 68.9911 11.2432C69.2406 11.4268 69.413 11.6965 69.475 12H74.1475L76 10.1475V10.8525L74.3525 12.5H69.475ZM65.475 52.5C65.413 52.8035 65.2406 53.0732 64.9911 53.2568C64.7416 53.4404 64.4328 53.5248 64.1246 53.4937C63.8164 53.4625 63.5308 53.3181 63.323 53.0883C63.1153 52.8585 63.0003 52.5598 63.0003 52.25C63.0003 51.9402 63.1153 51.6415 63.323 51.4117C63.5308 51.1819 63.8164 51.0375 64.1246 51.0063C64.4328 50.9752 64.7416 51.0596 64.9911 51.2432C65.2406 51.4268 65.413 51.6965 65.475 52H72V34.1475L76 30.1475V30.8525L72.5 34.3525V52.5H65.475ZM13.475 60.5C13.413 60.8035 13.2406 61.0732 12.9911 61.2568C12.7416 61.4404 12.4328 61.5248 12.1246 61.4937C11.8164 61.4625 11.5308 61.3181 11.323 61.0883C11.1153 60.8585 11.0003 60.5598 11.0003 60.25C11.0003 59.9402 11.1153 59.6415 11.323 59.4117C11.5308 59.1819 11.8164 59.0375 12.1246 59.0063C12.4328 58.9752 12.7416 59.0596 12.9911 59.2432C13.2406 59.4268 13.413 59.6965 13.475 60H16V54.3525L10.1475 48.5H5.475C5.41305 48.8035 5.2406 49.0732 4.9911 49.2568C4.7416 49.4404 4.43282 49.5248 4.12462 49.4937C3.81642 49.4625 3.53076 49.3181 3.32302 49.0883C3.11528 48.8585 3.00026 48.5598 3.00026 48.25C3.00026 47.9402 3.11528 47.6415 3.32302 47.4117C3.53076 47.1819 3.81642 47.0375 4.12462 47.0063C4.43282 46.9752 4.7416 47.0596 4.9911 47.2432C5.2406 47.4268 5.41305 47.6965 5.475 48H10.3525L16.5 54.1475V60.5H13.475ZM51.025 64C51.087 63.6965 51.2594 63.4268 51.5089 63.2432C51.7584 63.0596 52.0672 62.9752 52.3754 63.0063C52.6836 63.0375 52.9692 63.1819 53.177 63.4117C53.3847 63.6415 53.4997 63.9402 53.4997 64.25C53.4997 64.5598 53.3847 64.8585 53.177 65.0883C52.9692 65.3181 52.6836 65.4625 52.3754 65.4937C52.0672 65.5248 51.7584 65.4404 51.5089 65.2568C51.2594 65.0732 51.087 64.8035 51.025 64.5H24V50.35L14.15 40.5H9.475C9.41305 40.8035 9.2406 41.0732 8.9911 41.2568C8.7416 41.4404 8.43282 41.5248 8.12462 41.4937C7.81642 41.4625 7.53076 41.3181 7.32302 41.0883C7.11527 40.8585 7.00026 40.5598 7.00026 40.25C7.00026 39.9402 7.11527 39.6415 7.32302 39.4117C7.53076 39.1819 7.81642 39.0375 8.12462 39.0063C8.43282 38.9752 8.7416 39.0596 8.9911 39.2432C9.2406 39.4268 9.41305 39.6965 9.475 40H14.35L24.5 50.15V64H51.025ZM13.475 64.5C13.413 64.8035 13.2406 65.0732 12.9911 65.2568C12.7416 65.4404 12.4328 65.5248 12.1246 65.4937C11.8164 65.4625 11.5308 65.3181 11.323 65.0883C11.1153 64.8585 11.0003 64.5598 11.0003 64.25C11.0003 63.9402 11.1153 63.6415 11.323 63.4117C11.5308 63.1819 11.8164 63.0375 12.1246 63.0063C12.4328 62.9752 12.7416 63.0596 12.9911 63.2432C13.2406 63.4268 13.413 63.6965 13.475 64H20V52.3525L12.1475 44.5H5.475C5.41305 44.8035 5.2406 45.0732 4.9911 45.2568C4.7416 45.4404 4.43282 45.5248 4.12462 45.4937C3.81642 45.4625 3.53076 45.3181 3.32302 45.0883C3.11528 44.8585 3.00026 44.5598 3.00026 44.25C3.00026 43.9402 3.11528 43.6415 3.32302 43.4117C3.53076 43.1819 3.81642 43.0375 4.12462 43.0063C4.43282 42.9752 4.7416 43.0596 4.9911 43.2432C5.2406 43.4268 5.41305 43.6965 5.475 44H12.3525L20.5 52.1475V64.5H13.475ZM8.5 9.95V10.3525L2.3525 16.5H0V16H2.1475L8 10.1475V0H8.5V9.95ZM0.5 75.025C0.740223 75.074 0.960736 75.1925 1.1341 75.3659C1.30746 75.5393 1.42601 75.7598 1.475 76H0.9575C0.924711 75.9071 0.873926 75.8215 0.808048 75.7482C0.742171 75.6749 0.662492 75.6153 0.573568 75.5728C0.484643 75.5303 0.388216 75.5058 0.2898 75.5006C0.191383 75.4954 0.0929069 75.5096 0 75.5425L0 64H4.5V76H4V64.5H0.5V75.025ZM8.5 60.25V76H8V60.5H0V60H8.5V60.25ZM4.25 4.5H0V4H4V0H4.5V4.5H4.25ZM72.5 4H76V4.5H72V0H72.5V4ZM64.5 72.25V76H64V72.5H60.5V76H60V72H64.5V72.25ZM0 23.025C0.181529 22.9889 0.368804 22.9933 0.548405 23.0381C0.728005 23.0828 0.895486 23.1667 1.03884 23.2838C1.1822 23.4009 1.29789 23.5482 1.37762 23.7153C1.45734 23.8823 1.49914 24.0649 1.5 24.25C1.50004 24.4354 1.45884 24.6184 1.3794 24.7859C1.29995 24.9534 1.18425 25.1012 1.04067 25.2184C0.897086 25.3357 0.72922 25.4195 0.54923 25.4639C0.369241 25.5083 0.181634 25.5121 0 25.475L0 24.9575C0.113092 24.9973 0.234073 25.0094 0.352802 24.9928C0.471532 24.9762 0.584549 24.9313 0.68238 24.862C0.780212 24.7927 0.860007 24.701 0.915076 24.5945C0.970146 24.488 0.998885 24.3699 0.998885 24.25C0.998885 24.1301 0.970146 24.012 0.915076 23.9055C0.860007 23.799 0.780212 23.7073 0.68238 23.638C0.584549 23.5687 0.471532 23.5238 0.352802 23.5072C0.234073 23.4906 0.113092 23.5027 0 23.5425L0 23.025ZM20 68H20.5V76H20V68ZM29.475 76H28.9575C28.906 75.8535 28.8102 75.7266 28.6835 75.6369C28.5568 75.5471 28.4053 75.4989 28.25 75.4989C28.0947 75.4989 27.9432 75.5471 27.8165 75.6369C27.6898 75.7266 27.594 75.8535 27.5425 76H27.025C27.0824 75.7174 27.2357 75.4634 27.4589 75.2809C27.6822 75.0984 27.9617 74.9987 28.25 74.9987C28.5383 74.9987 28.8178 75.0984 29.0411 75.2809C29.2643 75.4634 29.4176 75.7174 29.475 76ZM1.475 0C1.51509 0.202297 1.5047 0.411355 1.44476 0.608683C1.38482 0.806011 1.27718 0.985527 1.13135 1.13135C0.985527 1.27718 0.806011 1.38482 0.608683 1.44476C0.411355 1.5047 0.202297 1.51509 0 1.475L0 0.9575C0.133554 1.00485 0.27779 1.01339 0.416001 0.982145C0.554211 0.950897 0.680742 0.881135 0.780939 0.780939C0.881135 0.680742 0.950897 0.554211 0.982145 0.416001C1.01339 0.27779 1.00485 0.133554 0.9575 0L1.475 0ZM75.025 0H75.5425C75.5096 0.0929069 75.4954 0.191383 75.5006 0.2898C75.5058 0.388216 75.5303 0.484643 75.5728 0.573568C75.6153 0.662492 75.6749 0.742171 75.7482 0.808048C75.8215 0.873926 75.9071 0.924711 76 0.9575V1.475C75.8391 1.4422 75.6863 1.37802 75.5502 1.28614C75.4141 1.19425 75.2975 1.07646 75.2069 0.939486C75.1164 0.802512 75.0537 0.649042 75.0225 0.487842C74.9913 0.326642 74.9921 0.160872 75.025 0ZM76 75.025V75.5425C75.8944 75.5798 75.7985 75.6402 75.7194 75.7194C75.6402 75.7985 75.5798 75.8944 75.5425 76H75.025C75.074 75.7598 75.1925 75.5393 75.3659 75.3659C75.5393 75.1925 75.7598 75.074 76 75.025ZM24.25 25C24.3485 25 24.446 24.9806 24.537 24.9429C24.628 24.9052 24.7107 24.85 24.7803 24.7803C24.85 24.7107 24.9052 24.628 24.9429 24.537C24.9806 24.446 25 24.3485 25 24.25C25 24.1515 24.9806 24.054 24.9429 23.963C24.9052 23.872 24.85 23.7893 24.7803 23.7197C24.7107 23.65 24.628 23.5948 24.537 23.5571C24.446 23.5194 24.3485 23.5 24.25 23.5C24.0511 23.5 23.8603 23.579 23.7197 23.7197C23.579 23.8603 23.5 24.0511 23.5 24.25C23.5 24.4489 23.579 24.6397 23.7197 24.7803C23.8603 24.921 24.0511 25 24.25 25ZM24.25 21C24.4489 21 24.6397 20.921 24.7803 20.7803C24.921 20.6397 25 20.4489 25 20.25C25 20.0511 24.921 19.8603 24.7803 19.7197C24.6397 19.579 24.4489 19.5 24.25 19.5C24.0511 19.5 23.8603 19.579 23.7197 19.7197C23.579 19.8603 23.5 20.0511 23.5 20.25C23.5 20.4489 23.579 20.6397 23.7197 20.7803C23.8603 20.921 24.0511 21 24.25 21ZM28.25 25C28.3485 25 28.446 24.9806 28.537 24.9429C28.628 24.9052 28.7107 24.85 28.7803 24.7803C28.85 24.7107 28.9052 24.628 28.9429 24.537C28.9806 24.446 29 24.3485 29 24.25C29 24.1515 28.9806 24.054 28.9429 23.963C28.9052 23.872 28.85 23.7893 28.7803 23.7197C28.7107 23.65 28.628 23.5948 28.537 23.5571C28.446 23.5194 28.3485 23.5 28.25 23.5C28.0511 23.5 27.8603 23.579 27.7197 23.7197C27.579 23.8603 27.5 24.0511 27.5 24.25C27.5 24.4489 27.579 24.6397 27.7197 24.7803C27.8603 24.921 28.0511 25 28.25 25ZM32.25 29C32.4489 29 32.6397 28.921 32.7803 28.7803C32.921 28.6397 33 28.4489 33 28.25C33 28.0511 32.921 27.8603 32.7803 27.7197C32.6397 27.579 32.4489 27.5 32.25 27.5C32.0511 27.5 31.8603 27.579 31.7197 27.7197C31.579 27.8603 31.5 28.0511 31.5 28.25C31.5 28.4489 31.579 28.6397 31.7197 28.7803C31.8603 28.921 32.0511 29 32.25 29ZM32.25 33C32.4489 33 32.6397 32.921 32.7803 32.7803C32.921 32.6397 33 32.4489 33 32.25C33 32.0511 32.921 31.8603 32.7803 31.7197C32.6397 31.579 32.4489 31.5 32.25 31.5C32.0511 31.5 31.8603 31.579 31.7197 31.7197C31.579 31.8603 31.5 32.0511 31.5 32.25C31.5 32.4489 31.579 32.6397 31.7197 32.7803C31.8603 32.921 32.0511 33 32.25 33ZM20.25 41C20.4489 41 20.6397 40.921 20.7803 40.7803C20.921 40.6397 21 40.4489 21 40.25C21 40.0511 20.921 39.8603 20.7803 39.7197C20.6397 39.579 20.4489 39.5 20.25 39.5C20.0511 39.5 19.8603 39.579 19.7197 39.7197C19.579 39.8603 19.5 40.0511 19.5 40.25C19.5 40.4489 19.579 40.6397 19.7197 40.7803C19.8603 40.921 20.0511 41 20.25 41ZM24.25 45C24.4489 45 24.6397 44.921 24.7803 44.7803C24.921 44.6397 25 44.4489 25 44.25C25 44.0511 24.921 43.8603 24.7803 43.7197C24.6397 43.579 24.4489 43.5 24.25 43.5C24.0511 43.5 23.8603 43.579 23.7197 43.7197C23.579 43.8603 23.5 44.0511 23.5 44.25C23.5 44.4489 23.579 44.6397 23.7197 44.7803C23.8603 44.921 24.0511 45 24.25 45ZM32.25 57C32.4489 57 32.6397 56.921 32.7803 56.7803C32.921 56.6397 33 56.4489 33 56.25C33 56.0511 32.921 55.8603 32.7803 55.7197C32.6397 55.579 32.4489 55.5 32.25 55.5C32.0511 55.5 31.8603 55.579 31.7197 55.7197C31.579 55.8603 31.5 56.0511 31.5 56.25C31.5 56.4489 31.579 56.6397 31.7197 56.7803C31.8603 56.921 32.0511 57 32.25 57ZM28.25 61C28.4489 61 28.6397 60.921 28.7803 60.7803C28.921 60.6397 29 60.4489 29 60.25C29 60.0511 28.921 59.8603 28.7803 59.7197C28.6397 59.579 28.4489 59.5 28.25 59.5C28.0511 59.5 27.8603 59.579 27.7197 59.7197C27.579 59.8603 27.5 60.0511 27.5 60.25C27.5 60.4489 27.579 60.6397 27.7197 60.7803C27.8603 60.921 28.0511 61 28.25 61ZM36.25 57C36.4489 57 36.6397 56.921 36.7803 56.7803C36.921 56.6397 37 56.4489 37 56.25C37 56.0511 36.921 55.8603 36.7803 55.7197C36.6397 55.579 36.4489 55.5 36.25 55.5C36.0511 55.5 35.8603 55.579 35.7197 55.7197C35.579 55.8603 35.5 56.0511 35.5 56.25C35.5 56.4489 35.579 56.6397 35.7197 56.7803C35.8603 56.921 36.0511 57 36.25 57ZM36.25 49C36.4489 49 36.6397 48.921 36.7803 48.7803C36.921 48.6397 37 48.4489 37 48.25C37 48.0511 36.921 47.8603 36.7803 47.7197C36.6397 47.579 36.4489 47.5 36.25 47.5C36.0511 47.5 35.8603 47.579 35.7197 47.7197C35.579 47.8603 35.5 48.0511 35.5 48.25C35.5 48.4489 35.579 48.6397 35.7197 48.7803C35.8603 48.921 36.0511 49 36.25 49ZM40.25 57C40.4489 57 40.6397 56.921 40.7803 56.7803C40.921 56.6397 41 56.4489 41 56.25C41 56.0511 40.921 55.8603 40.7803 55.7197C40.6397 55.579 40.4489 55.5 40.25 55.5C40.0511 55.5 39.8603 55.579 39.7197 55.7197C39.579 55.8603 39.5 56.0511 39.5 56.25C39.5 56.4489 39.579 56.6397 39.7197 56.7803C39.8603 56.921 40.0511 57 40.25 57ZM48.25 61C48.4489 61 48.6397 60.921 48.7803 60.7803C48.921 60.6397 49 60.4489 49 60.25C49 60.0511 48.921 59.8603 48.7803 59.7197C48.6397 59.579 48.4489 59.5 48.25 59.5C48.0511 59.5 47.8603 59.579 47.7197 59.7197C47.579 59.8603 47.5 60.0511 47.5 60.25C47.5 60.4489 47.579 60.6397 47.7197 60.7803C47.8603 60.921 48.0511 61 48.25 61ZM48.25 57C48.4489 57 48.6397 56.921 48.7803 56.7803C48.921 56.6397 49 56.4489 49 56.25C49 56.0511 48.921 55.8603 48.7803 55.7197C48.6397 55.579 48.4489 55.5 48.25 55.5C48.0511 55.5 47.8603 55.579 47.7197 55.7197C47.579 55.8603 47.5 56.0511 47.5 56.25C47.5 56.4489 47.579 56.6397 47.7197 56.7803C47.8603 56.921 48.0511 57 48.25 57ZM44.25 41C44.4489 41 44.6397 40.921 44.7803 40.7803C44.921 40.6397 45 40.4489 45 40.25C45 40.0511 44.921 39.8603 44.7803 39.7197C44.6397 39.579 44.4489 39.5 44.25 39.5C44.0511 39.5 43.8603 39.579 43.7197 39.7197C43.579 39.8603 43.5 40.0511 43.5 40.25C43.5 40.4489 43.579 40.6397 43.7197 40.7803C43.8603 40.921 44.0511 41 44.25 41ZM48.25 41C48.4489 41 48.6397 40.921 48.7803 40.7803C48.921 40.6397 49 40.4489 49 40.25C49 40.0511 48.921 39.8603 48.7803 39.7197C48.6397 39.579 48.4489 39.5 48.25 39.5C48.0511 39.5 47.8603 39.579 47.7197 39.7197C47.579 39.8603 47.5 40.0511 47.5 40.25C47.5 40.4489 47.579 40.6397 47.7197 40.7803C47.8603 40.921 48.0511 41 48.25 41ZM52.25 65C52.4489 65 52.6397 64.921 52.7803 64.7803C52.921 64.6397 53 64.4489 53 64.25C53 64.0511 52.921 63.8603 52.7803 63.7197C52.6397 63.579 52.4489 63.5 52.25 63.5C52.0511 63.5 51.8603 63.579 51.7197 63.7197C51.579 63.8603 51.5 64.0511 51.5 64.25C51.5 64.4489 51.579 64.6397 51.7197 64.7803C51.8603 64.921 52.0511 65 52.25 65ZM52.25 69C52.4489 69 52.6397 68.921 52.7803 68.7803C52.921 68.6397 53 68.4489 53 68.25C53 68.0511 52.921 67.8603 52.7803 67.7197C52.6397 67.579 52.4489 67.5 52.25 67.5C52.0511 67.5 51.8603 67.579 51.7197 67.7197C51.579 67.8603 51.5 68.0511 51.5 68.25C51.5 68.4489 51.579 68.6397 51.7197 68.7803C51.8603 68.921 52.0511 69 52.25 69ZM56.25 73C56.4489 73 56.6397 72.921 56.7803 72.7803C56.921 72.6397 57 72.4489 57 72.25C57 72.0511 56.921 71.8603 56.7803 71.7197C56.6397 71.579 56.4489 71.5 56.25 71.5C56.0511 71.5 55.8603 71.579 55.7197 71.7197C55.579 71.8603 55.5 72.0511 55.5 72.25C55.5 72.4489 55.579 72.6397 55.7197 72.7803C55.8603 72.921 56.0511 73 56.25 73ZM60.25 37C60.4489 37 60.6397 36.921 60.7803 36.7803C60.921 36.6397 61 36.4489 61 36.25C61 36.0511 60.921 35.8603 60.7803 35.7197C60.6397 35.579 60.4489 35.5 60.25 35.5C60.0511 35.5 59.8603 35.579 59.7197 35.7197C59.579 35.8603 59.5 36.0511 59.5 36.25C59.5 36.4489 59.579 36.6397 59.7197 36.7803C59.8603 36.921 60.0511 37 60.25 37ZM60.25 45C60.4489 45 60.6397 44.921 60.7803 44.7803C60.921 44.6397 61 44.4489 61 44.25C61 44.0511 60.921 43.8603 60.7803 43.7197C60.6397 43.579 60.4489 43.5 60.25 43.5C60.0511 43.5 59.8603 43.579 59.7197 43.7197C59.579 43.8603 59.5 44.0511 59.5 44.25C59.5 44.4489 59.579 44.6397 59.7197 44.7803C59.8603 44.921 60.0511 45 60.25 45ZM64.25 37C64.4489 37 64.6397 36.921 64.7803 36.7803C64.921 36.6397 65 36.4489 65 36.25C65 36.0511 64.921 35.8603 64.7803 35.7197C64.6397 35.579 64.4489 35.5 64.25 35.5C64.0511 35.5 63.8603 35.579 63.7197 35.7197C63.579 35.8603 63.5 36.0511 63.5 36.25C63.5 36.4489 63.579 36.6397 63.7197 36.7803C63.8603 36.921 64.0511 37 64.25 37ZM68.25 33C68.4489 33 68.6397 32.921 68.7803 32.7803C68.921 32.6397 69 32.4489 69 32.25C69 32.0511 68.921 31.8603 68.7803 31.7197C68.6397 31.579 68.4489 31.5 68.25 31.5C68.0511 31.5 67.8603 31.579 67.7197 31.7197C67.579 31.8603 67.5 32.0511 67.5 32.25C67.5 32.4489 67.579 32.6397 67.7197 32.7803C67.8603 32.921 68.0511 33 68.25 33ZM44.25 33C44.4489 33 44.6397 32.921 44.7803 32.7803C44.921 32.6397 45 32.4489 45 32.25C45 32.0511 44.921 31.8603 44.7803 31.7197C44.6397 31.579 44.4489 31.5 44.25 31.5C44.0511 31.5 43.8603 31.579 43.7197 31.7197C43.579 31.8603 43.5 32.0511 43.5 32.25C43.5 32.4489 43.579 32.6397 43.7197 32.7803C43.8603 32.921 44.0511 33 44.25 33ZM44.25 37C44.4489 37 44.6397 36.921 44.7803 36.7803C44.921 36.6397 45 36.4489 45 36.25C45 36.0511 44.921 35.8603 44.7803 35.7197C44.6397 35.579 44.4489 35.5 44.25 35.5C44.0511 35.5 43.8603 35.579 43.7197 35.7197C43.579 35.8603 43.5 36.0511 43.5 36.25C43.5 36.4489 43.579 36.6397 43.7197 36.7803C43.8603 36.921 44.0511 37 44.25 37ZM48.25 29C48.4489 29 48.6397 28.921 48.7803 28.7803C48.921 28.6397 49 28.4489 49 28.25C49 28.0511 48.921 27.8603 48.7803 27.7197C48.6397 27.579 48.4489 27.5 48.25 27.5C48.0511 27.5 47.8603 27.579 47.7197 27.7197C47.579 27.8603 47.5 28.0511 47.5 28.25C47.5 28.4489 47.579 28.6397 47.7197 28.7803C47.8603 28.921 48.0511 29 48.25 29ZM72.25 29C72.4489 29 72.6397 28.921 72.7803 28.7803C72.921 28.6397 73 28.4489 73 28.25C73 28.0511 72.921 27.8603 72.7803 27.7197C72.6397 27.579 72.4489 27.5 72.25 27.5C72.0511 27.5 71.8603 27.579 71.7197 27.7197C71.579 27.8603 71.5 28.0511 71.5 28.25C71.5 28.4489 71.579 28.6397 71.7197 28.7803C71.8603 28.921 72.0511 29 72.25 29ZM68.25 13C68.4489 13 68.6397 12.921 68.7803 12.7803C68.921 12.6397 69 12.4489 69 12.25C69 12.0511 68.921 11.8603 68.7803 11.7197C68.6397 11.579 68.4489 11.5 68.25 11.5C68.0511 11.5 67.8603 11.579 67.7197 11.7197C67.579 11.8603 67.5 12.0511 67.5 12.25C67.5 12.4489 67.579 12.6397 67.7197 12.7803C67.8603 12.921 68.0511 13 68.25 13ZM72.25 9C72.4489 9 72.6397 8.92098 72.7803 8.78033C72.921 8.63968 73 8.44891 73 8.25C73 8.05109 72.921 7.86032 72.7803 7.71967C72.6397 7.57902 72.4489 7.5 72.25 7.5C72.0511 7.5 71.8603 7.57902 71.7197 7.71967C71.579 7.86032 71.5 8.05109 71.5 8.25C71.5 8.44891 71.579 8.63968 71.7197 8.78033C71.8603 8.92098 72.0511 9 72.25 9ZM64.25 9C64.4489 9 64.6397 8.92098 64.7803 8.78033C64.921 8.63968 65 8.44891 65 8.25C65 8.05109 64.921 7.86032 64.7803 7.71967C64.6397 7.57902 64.4489 7.5 64.25 7.5C64.0511 7.5 63.8603 7.57902 63.7197 7.71967C63.579 7.86032 63.5 8.05109 63.5 8.25C63.5 8.44891 63.579 8.63968 63.7197 8.78033C63.8603 8.92098 64.0511 9 64.25 9ZM64.25 5C64.4489 5 64.6397 4.92098 64.7803 4.78033C64.921 4.63968 65 4.44891 65 4.25C65 4.05109 64.921 3.86032 64.7803 3.71967C64.6397 3.57902 64.4489 3.5 64.25 3.5C64.0511 3.5 63.8603 3.57902 63.7197 3.71967C63.579 3.86032 63.5 4.05109 63.5 4.25C63.5 4.44891 63.579 4.63968 63.7197 4.78033C63.8603 4.92098 64.0511 5 64.25 5ZM60.25 5C60.4489 5 60.6397 4.92098 60.7803 4.78033C60.921 4.63968 61 4.44891 61 4.25C61 4.05109 60.921 3.86032 60.7803 3.71967C60.6397 3.57902 60.4489 3.5 60.25 3.5C60.0511 3.5 59.8603 3.57902 59.7197 3.71967C59.579 3.86032 59.5 4.05109 59.5 4.25C59.5 4.44891 59.579 4.63968 59.7197 4.78033C59.8603 4.92098 60.0511 5 60.25 5ZM56.25 5C56.4489 5 56.6397 4.92098 56.7803 4.78033C56.921 4.63968 57 4.44891 57 4.25C57 4.05109 56.921 3.86032 56.7803 3.71967C56.6397 3.57902 56.4489 3.5 56.25 3.5C56.0511 3.5 55.8603 3.57902 55.7197 3.71967C55.579 3.86032 55.5 4.05109 55.5 4.25C55.5 4.44891 55.579 4.63968 55.7197 4.78033C55.8603 4.92098 56.0511 5 56.25 5ZM52.25 5C52.4489 5 52.6397 4.92098 52.7803 4.78033C52.921 4.63968 53 4.44891 53 4.25C53 4.05109 52.921 3.86032 52.7803 3.71967C52.6397 3.57902 52.4489 3.5 52.25 3.5C52.0511 3.5 51.8603 3.57902 51.7197 3.71967C51.579 3.86032 51.5 4.05109 51.5 4.25C51.5 4.44891 51.579 4.63968 51.7197 4.78033C51.8603 4.92098 52.0511 5 52.25 5ZM12.25 9C12.4489 9 12.6397 8.92098 12.7803 8.78033C12.921 8.63968 13 8.44891 13 8.25C13 8.05109 12.921 7.86032 12.7803 7.71967C12.6397 7.57902 12.4489 7.5 12.25 7.5C12.0511 7.5 11.8603 7.57902 11.7197 7.71967C11.579 7.86032 11.5 8.05109 11.5 8.25C11.5 8.44891 11.579 8.63968 11.7197 8.78033C11.8603 8.92098 12.0511 9 12.25 9ZM4.25 9C4.44891 9 4.63968 8.92098 4.78033 8.78033C4.92098 8.63968 5 8.44891 5 8.25C5 8.05109 4.92098 7.86032 4.78033 7.71967C4.63968 7.57902 4.44891 7.5 4.25 7.5C4.05109 7.5 3.86032 7.57902 3.71967 7.71967C3.57902 7.86032 3.5 8.05109 3.5 8.25C3.5 8.44891 3.57902 8.63968 3.71967 8.78033C3.86032 8.92098 4.05109 9 4.25 9ZM12.25 13C12.4489 13 12.6397 12.921 12.7803 12.7803C12.921 12.6397 13 12.4489 13 12.25C13 12.0511 12.921 11.8603 12.7803 11.7197C12.6397 11.579 12.4489 11.5 12.25 11.5C12.0511 11.5 11.8603 11.579 11.7197 11.7197C11.579 11.8603 11.5 12.0511 11.5 12.25C11.5 12.4489 11.579 12.6397 11.7197 12.7803C11.8603 12.921 12.0511 13 12.25 13ZM8.25 17C8.44891 17 8.63968 16.921 8.78033 16.7803C8.92098 16.6397 9 16.4489 9 16.25C9 16.0511 8.92098 15.8603 8.78033 15.7197C8.63968 15.579 8.44891 15.5 8.25 15.5C8.05109 15.5 7.86032 15.579 7.71967 15.7197C7.57902 15.8603 7.5 16.0511 7.5 16.25C7.5 16.4489 7.57902 16.6397 7.71967 16.7803C7.86032 16.921 8.05109 17 8.25 17ZM12.25 5C12.4489 5 12.6397 4.92098 12.7803 4.78033C12.921 4.63968 13 4.44891 13 4.25C13 4.05109 12.921 3.86032 12.7803 3.71967C12.6397 3.57902 12.4489 3.5 12.25 3.5C12.0511 3.5 11.8603 3.57902 11.7197 3.71967C11.579 3.86032 11.5 4.05109 11.5 4.25C11.5 4.44891 11.579 4.63968 11.7197 4.78033C11.8603 4.92098 12.0511 5 12.25 5ZM12.25 65C12.4489 65 12.6397 64.921 12.7803 64.7803C12.921 64.6397 13 64.4489 13 64.25C13 64.0511 12.921 63.8603 12.7803 63.7197C12.6397 63.579 12.4489 63.5 12.25 63.5C12.0511 63.5 11.8603 63.579 11.7197 63.7197C11.579 63.8603 11.5 64.0511 11.5 64.25C11.5 64.4489 11.579 64.6397 11.7197 64.7803C11.8603 64.921 12.0511 65 12.25 65ZM16.25 73C16.4489 73 16.6397 72.921 16.7803 72.7803C16.921 72.6397 17 72.4489 17 72.25C17 72.0511 16.921 71.8603 16.7803 71.7197C16.6397 71.579 16.4489 71.5 16.25 71.5C16.0511 71.5 15.8603 71.579 15.7197 71.7197C15.579 71.8603 15.5 72.0511 15.5 72.25C15.5 72.4489 15.579 72.6397 15.7197 72.7803C15.8603 72.921 16.0511 73 16.25 73ZM12.25 57C12.4489 57 12.6397 56.921 12.7803 56.7803C12.921 56.6397 13 56.4489 13 56.25C13 56.0511 12.921 55.8603 12.7803 55.7197C12.6397 55.579 12.4489 55.5 12.25 55.5C12.0511 55.5 11.8603 55.579 11.7197 55.7197C11.579 55.8603 11.5 56.0511 11.5 56.25C11.5 56.4489 11.579 56.6397 11.7197 56.7803C11.8603 56.921 12.0511 57 12.25 57ZM12.25 61C12.4489 61 12.6397 60.921 12.7803 60.7803C12.921 60.6397 13 60.4489 13 60.25C13 60.0511 12.921 59.8603 12.7803 59.7197C12.6397 59.579 12.4489 59.5 12.25 59.5C12.0511 59.5 11.8603 59.579 11.7197 59.7197C11.579 59.8603 11.5 60.0511 11.5 60.25C11.5 60.4489 11.579 60.6397 11.7197 60.7803C11.8603 60.921 12.0511 61 12.25 61ZM8.25 53C8.44891 53 8.63968 52.921 8.78033 52.7803C8.92098 52.6397 9 52.4489 9 52.25C9 52.0511 8.92098 51.8603 8.78033 51.7197C8.63968 51.579 8.44891 51.5 8.25 51.5C8.05109 51.5 7.86032 51.579 7.71967 51.7197C7.57902 51.8603 7.5 52.0511 7.5 52.25C7.5 52.4489 7.57902 52.6397 7.71967 52.7803C7.86032 52.921 8.05109 53 8.25 53ZM28.25 9C28.4489 9 28.6397 8.92098 28.7803 8.78033C28.921 8.63968 29 8.44891 29 8.25C29 8.05109 28.921 7.86032 28.7803 7.71967C28.6397 7.57902 28.4489 7.5 28.25 7.5C28.0511 7.5 27.8603 7.57902 27.7197 7.71967C27.579 7.86032 27.5 8.05109 27.5 8.25C27.5 8.44891 27.579 8.63968 27.7197 8.78033C27.8603 8.92098 28.0511 9 28.25 9ZM32.25 9C32.4489 9 32.6397 8.92098 32.7803 8.78033C32.921 8.63968 33 8.44891 33 8.25C33 8.05109 32.921 7.86032 32.7803 7.71967C32.6397 7.57902 32.4489 7.5 32.25 7.5C32.0511 7.5 31.8603 7.57902 31.7197 7.71967C31.579 7.86032 31.5 8.05109 31.5 8.25C31.5 8.44891 31.579 8.63968 31.7197 8.78033C31.8603 8.92098 32.0511 9 32.25 9ZM28.25 5C28.4489 5 28.6397 4.92098 28.7803 4.78033C28.921 4.63968 29 4.44891 29 4.25C29 4.05109 28.921 3.86032 28.7803 3.71967C28.6397 3.57902 28.4489 3.5 28.25 3.5C28.0511 3.5 27.8603 3.57902 27.7197 3.71967C27.579 3.86032 27.5 4.05109 27.5 4.25C27.5 4.44891 27.579 4.63968 27.7197 4.78033C27.8603 4.92098 28.0511 5 28.25 5ZM36.25 17C36.4489 17 36.6397 16.921 36.7803 16.7803C36.921 16.6397 37 16.4489 37 16.25C37 16.0511 36.921 15.8603 36.7803 15.7197C36.6397 15.579 36.4489 15.5 36.25 15.5C36.0511 15.5 35.8603 15.579 35.7197 15.7197C35.579 15.8603 35.5 16.0511 35.5 16.25C35.5 16.4489 35.579 16.6397 35.7197 16.7803C35.8603 16.921 36.0511 17 36.25 17ZM40.25 13C40.4489 13 40.6397 12.921 40.7803 12.7803C40.921 12.6397 41 12.4489 41 12.25C41 12.0511 40.921 11.8603 40.7803 11.7197C40.6397 11.579 40.4489 11.5 40.25 11.5C40.0511 11.5 39.8603 11.579 39.7197 11.7197C39.579 11.8603 39.5 12.0511 39.5 12.25C39.5 12.4489 39.579 12.6397 39.7197 12.7803C39.8603 12.921 40.0511 13 40.25 13ZM40.25 5C40.4489 5 40.6397 4.92098 40.7803 4.78033C40.921 4.63968 41 4.44891 41 4.25C41 4.05109 40.921 3.86032 40.7803 3.71967C40.6397 3.57902 40.4489 3.5 40.25 3.5C40.0511 3.5 39.8603 3.57902 39.7197 3.71967C39.579 3.86032 39.5 4.05109 39.5 4.25C39.5 4.44891 39.579 4.63968 39.7197 4.78033C39.8603 4.92098 40.0511 5 40.25 5ZM68.25 49C68.4489 49 68.6397 48.921 68.7803 48.7803C68.921 48.6397 69 48.4489 69 48.25C69 48.0511 68.921 47.8603 68.7803 47.7197C68.6397 47.579 68.4489 47.5 68.25 47.5C68.0511 47.5 67.8603 47.579 67.7197 47.7197C67.579 47.8603 67.5 48.0511 67.5 48.25C67.5 48.4489 67.579 48.6397 67.7197 48.7803C67.8603 48.921 68.0511 49 68.25 49ZM64.25 53C64.4489 53 64.6397 52.921 64.7803 52.7803C64.921 52.6397 65 52.4489 65 52.25C65 52.0511 64.921 51.8603 64.7803 51.7197C64.6397 51.579 64.4489 51.5 64.25 51.5C64.0511 51.5 63.8603 51.579 63.7197 51.7197C63.579 51.8603 63.5 52.0511 63.5 52.25C63.5 52.4489 63.579 52.6397 63.7197 52.7803C63.8603 52.921 64.0511 53 64.25 53ZM64.25 57C64.4489 57 64.6397 56.921 64.7803 56.7803C64.921 56.6397 65 56.4489 65 56.25C65 56.0511 64.921 55.8603 64.7803 55.7197C64.6397 55.579 64.4489 55.5 64.25 55.5C64.0511 55.5 63.8603 55.579 63.7197 55.7197C63.579 55.8603 63.5 56.0511 63.5 56.25C63.5 56.4489 63.579 56.6397 63.7197 56.7803C63.8603 56.921 64.0511 57 64.25 57ZM64.25 61C64.4489 61 64.6397 60.921 64.7803 60.7803C64.921 60.6397 65 60.4489 65 60.25C65 60.0511 64.921 59.8603 64.7803 59.7197C64.6397 59.579 64.4489 59.5 64.25 59.5C64.0511 59.5 63.8603 59.579 63.7197 59.7197C63.579 59.8603 63.5 60.0511 63.5 60.25C63.5 60.4489 63.579 60.6397 63.7197 60.7803C63.8603 60.921 64.0511 61 64.25 61ZM4.25 45C4.44891 45 4.63968 44.921 4.78033 44.7803C4.92098 44.6397 5 44.4489 5 44.25C5 44.0511 4.92098 43.8603 4.78033 43.7197C4.63968 43.579 4.44891 43.5 4.25 43.5C4.05109 43.5 3.86032 43.579 3.71967 43.7197C3.57902 43.8603 3.5 44.0511 3.5 44.25C3.5 44.4489 3.57902 44.6397 3.71967 44.7803C3.86032 44.921 4.05109 45 4.25 45ZM4.25 49C4.44891 49 4.63968 48.921 4.78033 48.7803C4.92098 48.6397 5 48.4489 5 48.25C5 48.0511 4.92098 47.8603 4.78033 47.7197C4.63968 47.579 4.44891 47.5 4.25 47.5C4.05109 47.5 3.86032 47.579 3.71967 47.7197C3.57902 47.8603 3.5 48.0511 3.5 48.25C3.5 48.4489 3.57902 48.6397 3.71967 48.7803C3.86032 48.921 4.05109 49 4.25 49ZM4.25 41C4.44891 41 4.63968 40.921 4.78033 40.7803C4.92098 40.6397 5 40.4489 5 40.25C5 40.0511 4.92098 39.8603 4.78033 39.7197C4.63968 39.579 4.44891 39.5 4.25 39.5C4.05109 39.5 3.86032 39.579 3.71967 39.7197C3.57902 39.8603 3.5 40.0511 3.5 40.25C3.5 40.4489 3.57902 40.6397 3.71967 40.7803C3.86032 40.921 4.05109 41 4.25 41ZM8.25 41C8.44891 41 8.63968 40.921 8.78033 40.7803C8.92098 40.6397 9 40.4489 9 40.25C9 40.0511 8.92098 39.8603 8.78033 39.7197C8.63968 39.579 8.44891 39.5 8.25 39.5C8.05109 39.5 7.86032 39.579 7.71967 39.7197C7.57902 39.8603 7.5 40.0511 7.5 40.25C7.5 40.4489 7.57902 40.6397 7.71967 40.7803C7.86032 40.921 8.05109 41 8.25 41ZM4.25 21C4.44891 21 4.63968 20.921 4.78033 20.7803C4.92098 20.6397 5 20.4489 5 20.25C5 20.0511 4.92098 19.8603 4.78033 19.7197C4.63968 19.579 4.44891 19.5 4.25 19.5C4.05109 19.5 3.86032 19.579 3.71967 19.7197C3.57902 19.8603 3.5 20.0511 3.5 20.25C3.5 20.4489 3.57902 20.6397 3.71967 20.7803C3.86032 20.921 4.05109 21 4.25 21ZM12.25 37C12.4489 37 12.6397 36.921 12.7803 36.7803C12.921 36.6397 13 36.4489 13 36.25C13 36.0511 12.921 35.8603 12.7803 35.7197C12.6397 35.579 12.4489 35.5 12.25 35.5C12.0511 35.5 11.8603 35.579 11.7197 35.7197C11.579 35.8603 11.5 36.0511 11.5 36.25C11.5 36.4489 11.579 36.6397 11.7197 36.7803C11.8603 36.921 12.0511 37 12.25 37ZM16.25 33C16.4489 33 16.6397 32.921 16.7803 32.7803C16.921 32.6397 17 32.4489 17 32.25C17 32.0511 16.921 31.8603 16.7803 31.7197C16.6397 31.579 16.4489 31.5 16.25 31.5C16.0511 31.5 15.8603 31.579 15.7197 31.7197C15.579 31.8603 15.5 32.0511 15.5 32.25C15.5 32.4489 15.579 32.6397 15.7197 32.7803C15.8603 32.921 16.0511 33 16.25 33Z" fill="#F5F5F5"/>
</g>
<defs>
<clipPath id="clip0_1225_916">
<rect width="76" height="76" fill="white"/>
</clipPath>
</defs>
</svg>
